<svg width="18" height="18" viewBox="0 0 18 18" fill="none" xmlns="http://www.w3.org/2000/svg">
<g clip-path="url(#clip0_185_99)">
<path d="M17.3077 6.9231C17.1241 6.9231 16.948 6.99604 16.8182 7.12587C16.6884 7.2557 16.6154 7.43179 16.6154 7.6154V13.1539C16.6154 13.3375 16.5425 13.5136 16.4126 13.6434C16.2828 13.7732 16.1067 13.8462 15.9231 13.8462H2.07693C1.89332 13.8462 1.71722 13.7732 1.58739 13.6434C1.45756 13.5136 1.38462 13.3375 1.38462 13.1539V7.6154C1.38462 7.43179 1.31168 7.2557 1.18185 7.12587C1.05201 6.99604 0.875921 6.9231 0.692309 6.9231C0.508697 6.9231 0.332606 6.99604 0.202773 7.12587C0.0729395 7.2557 0 7.43179 0 7.6154V13.1539C0.00048476 13.7045 0.219621 14.2324 0.609232 14.6216C0.998358 15.0112 1.52628 15.2303 2.07693 15.2308H15.9231C16.4738 15.2303 17.0017 15.0112 17.3908 14.6216C17.7804 14.2324 17.9995 13.7045 18 13.1539V7.6154C18 7.43179 17.9271 7.2557 17.7973 7.12587C17.6674 6.99604 17.4913 6.9231 17.3077 6.9231Z" fill="#CCD6F6"/>
<path d="M8.58471 10.9385C8.70454 11.0284 8.8503 11.077 9.00009 11.077C9.14989 11.077 9.29564 11.0284 9.41548 10.9385L17.5916 4.80467C17.7192 4.70849 17.8096 4.57116 17.8474 4.41596C17.8853 4.26076 17.8683 4.09724 17.7993 3.95314C17.6962 3.74013 17.5582 3.5459 17.3909 3.37852C17.0018 2.98891 16.4738 2.76977 15.9232 2.76929H2.077C1.52635 2.76977 0.998435 2.98891 0.609309 3.37852C0.442016 3.5459 0.303951 3.74013 0.200847 3.95314C0.131905 4.09724 0.11492 4.26076 0.152774 4.41596C0.190628 4.57116 0.28099 4.70849 0.40854 4.80467L8.58471 10.9385ZM2.077 4.1539H15.9232C15.9874 4.14379 16.0528 4.14379 16.117 4.1539L9.00009 9.5193L1.88316 4.1539C1.94738 4.14379 2.01278 4.14379 2.077 4.1539V4.1539Z" fill="#CCD6F6"/>
</g>
<defs>
<clipPath id="clip0_185_99">
<rect width="18" height="18" fill="white"/>
</clipPath>
</defs>
</svg>
