<svg width="48" height="48" viewBox="0 0 48 48" fill="none" xmlns="http://www.w3.org/2000/svg">
<g clip-path="url(#clip0_185_23)">
<path d="M45 7H3C2.20435 7 1.44129 7.31607 0.87868 7.87868C0.31607 8.44129 0 9.20435 0 10L0 38C0 38.7956 0.31607 39.5587 0.87868 40.1213C1.44129 40.6839 2.20435 41 3 41H45C45.7956 41 46.5587 40.6839 47.1213 40.1213C47.6839 39.5587 48 38.7956 48 38V10C48 9.20435 47.6839 8.44129 47.1213 7.87868C46.5587 7.31607 45.7956 7 45 7ZM44.36 9L24 24.74L3.64 9H44.36ZM2 37.59V10.26L17.41 22.17L2 37.59ZM3.41 39L19 23.41L23.38 26.8C23.5549 26.9346 23.7693 27.0076 23.99 27.0076C24.2107 27.0076 24.4251 26.9346 24.6 26.8L29 23.41L44.59 39H3.41ZM46 37.59L30.59 22.17L46 10.26V37.59Z" fill="#CCD6F6"/>
</g>
<defs>
<clipPath id="clip0_185_23">
<rect width="48" height="48" fill="white"/>
</clipPath>
</defs>
</svg>
