<svg width="30" height="30" viewBox="0 0 30 30" fill="none" xmlns="http://www.w3.org/2000/svg">
<g clip-path="url(#clip0_185_71)">
<path d="M28.8462 11.5386C28.5402 11.5386 28.2467 11.6601 28.0303 11.8765C27.8139 12.0929 27.6924 12.3864 27.6924 12.6924V21.9232C27.6924 22.2292 27.5708 22.5227 27.3544 22.7391C27.138 22.9555 26.8445 23.0771 26.5385 23.0771H3.46154C3.15552 23.0771 2.86204 22.9555 2.64565 22.7391C2.42926 22.5227 2.3077 22.2292 2.3077 21.9232V12.6924C2.3077 12.3864 2.18613 12.0929 1.96974 11.8765C1.75335 11.6601 1.45987 11.5386 1.15385 11.5386C0.847829 11.5386 0.554343 11.6601 0.337954 11.8765C0.121566 12.0929 0 12.3864 0 12.6924V21.9232C0.000807934 22.841 0.366035 23.7208 1.01539 24.3694C1.66393 25.0187 2.5438 25.3839 3.46154 25.3848H26.5385C27.4563 25.3839 28.3361 25.0187 28.9847 24.3694C29.634 23.7208 29.9992 22.841 30.0001 21.9232V12.6924C30.0001 12.3864 29.8785 12.0929 29.6621 11.8765C29.4457 11.6601 29.1522 11.5386 28.8462 11.5386Z" fill="#62F9D5"/>
<path d="M14.3078 18.2309C14.5075 18.3807 14.7504 18.4617 15.0001 18.4617C15.2497 18.4617 15.4927 18.3807 15.6924 18.2309L29.3193 8.00779C29.5319 7.84749 29.6825 7.6186 29.7456 7.35993C29.8087 7.10126 29.7804 6.82874 29.6655 6.58856C29.4936 6.23354 29.2635 5.90983 28.9847 5.63087C28.3362 4.98151 27.4563 4.61629 26.5386 4.61548H3.46159C2.54384 4.61629 1.66398 4.98151 1.01543 5.63087C0.736613 5.90983 0.506503 6.23354 0.334664 6.58856C0.219759 6.82874 0.191452 7.10126 0.254542 7.35993C0.317632 7.6186 0.468235 7.84749 0.680818 8.00779L14.3078 18.2309ZM3.46159 6.92317H26.5386C26.6456 6.90632 26.7546 6.90632 26.8616 6.92317L15.0001 15.8655L3.13851 6.92317C3.24555 6.90632 3.35456 6.90632 3.46159 6.92317V6.92317Z" fill="#62F9D5"/>
</g>
<defs>
<clipPath id="clip0_185_71">
<rect width="30" height="30" fill="white"/>
</clipPath>
</defs>
</svg>
