<svg width="32" height="32" viewBox="0 0 32 32" fill="none" xmlns="http://www.w3.org/2000/svg">
<path d="M28 28H4C3.20435 28 2.44129 27.6839 1.87868 27.1213C1.31607 26.5587 1 25.7957 1 25V7C1 6.20435 1.31607 5.44129 1.87868 4.87868C2.44129 4.31607 3.20435 4 4 4H12C12.1469 3.99976 12.2921 4.0319 12.4252 4.09412C12.5582 4.15634 12.676 4.24712 12.77 4.36L15.8 8H28C28.7956 8 29.5587 8.31607 30.1213 8.87868C30.6839 9.44129 31 10.2044 31 11V25C31 25.7957 30.6839 26.5587 30.1213 27.1213C29.5587 27.6839 28.7956 28 28 28V28ZM4 6C3.73478 6 3.48043 6.10536 3.29289 6.29289C3.10536 6.48043 3 6.73478 3 7V25C3 25.2652 3.10536 25.5196 3.29289 25.7071C3.48043 25.8946 3.73478 26 4 26H28C28.2652 26 28.5196 25.8946 28.7071 25.7071C28.8946 25.5196 29 25.2652 29 25V11C29 10.7348 28.8946 10.4804 28.7071 10.2929C28.5196 10.1054 28.2652 10 28 10H15.33C15.1848 9.99878 15.0416 9.96594 14.9103 9.90377C14.7791 9.84161 14.6629 9.75159 14.57 9.64L11.53 6H4Z" fill="#62F9D5"/>
</svg>
