<svg width="18" height="18" viewBox="0 0 18 18" fill="none" xmlns="http://www.w3.org/2000/svg">
<g clip-path="url(#clip0_185_89)">
<path d="M6.75 14.2501C3 15.3751 3 12.3751 1.5 12.0001M12 16.5001V13.5976C12.0281 13.2399 11.9798 12.8804 11.8583 12.5429C11.7367 12.2054 11.5447 11.8976 11.295 11.6401C13.65 11.3776 16.125 10.4851 16.125 6.39008C16.1248 5.34295 15.722 4.33597 15 3.57758C15.3419 2.66146 15.3177 1.64884 14.9325 0.750075C14.9325 0.750075 14.0475 0.487575 12 1.86008C10.281 1.39419 8.46899 1.39419 6.75 1.86008C4.7025 0.487575 3.8175 0.750075 3.8175 0.750075C3.43228 1.64884 3.40811 2.66146 3.75 3.57758C3.0226 4.3416 2.61939 5.35767 2.625 6.41258C2.625 10.4776 5.1 11.3701 7.455 11.6626C7.20825 11.9176 7.01795 12.2216 6.89648 12.555C6.77502 12.8884 6.72511 13.2436 6.75 13.5976V16.5001" stroke="#CCD6F6" stroke-width="2" stroke-linecap="round" stroke-linejoin="round"/>
</g>
<defs>
<clipPath id="clip0_185_89">
<rect width="18" height="18" fill="white"/>
</clipPath>
</defs>
</svg>
