<svg width="30" height="30" viewBox="0 0 30 30" fill="none" xmlns="http://www.w3.org/2000/svg">
<g clip-path="url(#clip0_185_67)">
<path d="M16.8672 2.8125C14.4393 2.81138 12.0526 3.43981 9.93972 4.63651C7.82687 5.83321 6.06004 7.55734 4.81154 9.64074C3.56304 11.7242 2.87548 14.0957 2.81591 16.5242C2.75634 18.9527 3.32679 21.3551 4.47164 23.4973L2.81817 29.5633C2.76351 29.753 2.7618 29.9541 2.81324 30.1447C2.86468 30.3353 2.96729 30.5082 3.10996 30.6446C3.21615 30.7416 3.34062 30.8164 3.47609 30.8647C3.61156 30.913 3.75529 30.9337 3.89887 30.9257C3.99549 30.9414 4.09403 30.9414 4.19065 30.9257L10.5776 29.1416C10.8541 29.0656 11.0892 28.8828 11.2311 28.6334C11.373 28.3839 11.41 28.0884 11.334 27.8116C11.2581 27.5349 11.0754 27.2997 10.8261 27.1577C10.5768 27.0158 10.2814 26.9787 10.0048 27.0547L5.43345 28.2874L6.67625 23.6379C6.71314 23.5005 6.72259 23.3572 6.70404 23.2162C6.6855 23.0752 6.63933 22.9393 6.56818 22.8161C5.25983 20.5488 4.73574 17.9128 5.07718 15.3171C5.41862 12.7214 6.60651 10.3109 8.45664 8.45945C10.3068 6.60801 12.7158 5.41907 15.31 5.07701C17.9043 4.73495 20.5389 5.25888 22.8053 6.56755C25.0716 7.87622 26.8431 9.89651 27.845 12.3151C28.8469 14.7337 29.0232 17.4155 28.3465 19.9446C27.6699 22.4737 26.1782 24.7087 24.1027 26.3031C22.0272 27.8976 19.4839 28.7623 16.8672 28.7631C16.2011 28.7638 15.536 28.7095 14.8787 28.6009C14.5965 28.554 14.3071 28.621 14.0741 28.7872C13.8411 28.9534 13.6836 29.2053 13.6359 29.4876C13.589 29.77 13.656 30.0595 13.8221 30.2926C13.9882 30.5257 14.24 30.6834 14.5221 30.7311C16.438 31.0534 18.3999 30.9747 20.2839 30.4998C22.1678 30.0249 23.9329 29.1643 25.4675 27.9722C27.0021 26.7801 28.2729 25.2825 29.1996 23.574C30.1263 21.8656 30.6888 19.9833 30.8515 18.0463C31.0142 16.1093 30.7736 14.1595 30.1449 12.3203C29.5162 10.481 28.513 8.79218 27.1988 7.36054C25.8846 5.9289 24.2879 4.78555 22.5096 4.00273C20.7313 3.2199 18.81 2.81463 16.8672 2.8125V2.8125Z" fill="#62F9D5"/>
<path d="M15.7866 11.6898L14.533 9.95976C14.3441 9.70049 14.1015 9.4851 13.8217 9.32834C13.5419 9.17158 13.2316 9.07714 12.9119 9.05149C12.5907 9.02781 12.2681 9.07348 11.9661 9.18542C11.664 9.29735 11.3895 9.47293 11.1612 9.70025L9.86437 10.9978C9.57459 11.2939 9.34841 11.6461 9.19973 12.0329C9.05105 12.4197 8.98302 12.8328 8.99981 13.2468C8.99981 15.1607 10.4696 17.5719 13.3226 20.3833C16.6619 23.6271 18.9746 24.7084 20.5524 24.7084C20.9535 24.7189 21.3525 24.6466 21.7244 24.4959C22.0963 24.3452 22.4331 24.1194 22.7138 23.8325L24.0107 22.535C24.2466 22.3135 24.4299 22.0419 24.5469 21.7401C24.664 21.4384 24.7118 21.1141 24.6869 20.7914C24.662 20.4687 24.565 20.1556 24.4031 19.8754C24.2412 19.5951 24.0184 19.3549 23.7513 19.1722L22.0546 17.9504C21.7721 17.7477 21.4467 17.613 21.1037 17.5567C20.7607 17.5005 20.4093 17.5242 20.0769 17.626L18.4667 18.1342C18.3661 18.1271 18.2692 18.0935 18.1857 18.0369C17.2267 17.3481 16.3715 16.5251 15.6461 15.5932C15.639 15.5539 15.639 15.5136 15.6461 15.4743C15.7866 14.9985 16.0243 14.2308 16.1864 13.701C16.2913 13.3588 16.3097 12.996 16.2399 12.645C16.1701 12.2939 16.0144 11.9658 15.7866 11.6898ZM17.1807 19.9399C17.7585 20.2568 18.4375 20.3345 19.0719 20.1562L20.7362 19.6588L22.4761 21.0104L21.1901 22.2755C20.6713 22.7837 18.7585 22.6323 14.8572 18.8046C11.6151 15.6581 11.172 13.9389 11.172 13.2036C11.1801 12.9542 11.2847 12.7177 11.4638 12.544L12.8471 11.2573L14.1223 13.0414C13.9494 13.5712 13.7008 14.3606 13.5712 14.8255C13.4172 15.3216 13.4363 15.8554 13.6252 16.3393C14.5572 17.7803 15.7837 19.0074 17.2239 19.9399H17.1807Z" fill="#62F9D5"/>
</g>
<defs>
<clipPath id="clip0_185_67">
<rect width="30" height="30" fill="white"/>
</clipPath>
</defs>
</svg>
