<svg width="18" height="18" viewBox="0 0 18 18" fill="none" xmlns="http://www.w3.org/2000/svg">
<g clip-path="url(#clip0_185_95)">
<path d="M10.1203 1.6875C8.66359 1.68683 7.23154 2.06389 5.96383 2.78191C4.69612 3.49993 3.63603 4.5344 2.88693 5.78445C2.13782 7.03449 1.72529 8.45744 1.68954 9.91452C1.6538 11.3716 1.99607 12.8131 2.68298 14.0984L1.6909 17.738C1.6581 17.8518 1.65708 17.9724 1.68794 18.0868C1.71881 18.2012 1.78038 18.3049 1.86598 18.3867C1.92969 18.4449 2.00437 18.4899 2.08565 18.5188C2.16693 18.5478 2.25317 18.5602 2.33932 18.5554C2.3973 18.5649 2.45642 18.5649 2.51439 18.5554L6.34654 17.485C6.51249 17.4394 6.65354 17.3297 6.73866 17.18C6.82378 17.0304 6.846 16.853 6.80043 16.687C6.75486 16.5209 6.64523 16.3798 6.49566 16.2946C6.34609 16.2095 6.16883 16.1872 6.00288 16.2328L3.26007 16.9724L4.00575 14.1827C4.02789 14.1003 4.03355 14.0143 4.02242 13.9297C4.0113 13.8451 3.9836 13.7636 3.94091 13.6897C3.1559 12.3293 2.84144 10.7477 3.04631 9.19027C3.25117 7.63283 3.9639 6.18654 5.07399 5.07567C6.18407 3.96481 7.62946 3.25144 9.18603 3.0462C10.7426 2.84097 12.3233 3.15533 13.6832 3.94053C15.043 4.72573 16.1059 5.93791 16.707 7.38907C17.3081 8.84024 17.4139 10.4493 17.0079 11.9668C16.602 13.4842 15.7069 14.8252 14.4616 15.7819C13.2163 16.7385 11.6903 17.2574 10.1203 17.2579C9.72063 17.2583 9.32159 17.2257 8.92724 17.1606C8.75788 17.1324 8.58426 17.1726 8.44448 17.2723C8.30469 17.3721 8.21014 17.5232 8.18156 17.6926C8.15341 17.862 8.19358 18.0357 8.29325 18.1756C8.39293 18.3154 8.54397 18.41 8.71326 18.4386C9.86281 18.632 11.04 18.5848 12.1703 18.2999C13.3007 18.015 14.3597 17.4986 15.2805 16.7833C16.2013 16.0681 16.9637 15.1695 17.5198 14.1444C18.0758 13.1193 18.4133 11.99 18.5109 10.8278C18.6085 9.66556 18.4642 8.49571 18.0869 7.39215C17.7097 6.28859 17.1078 5.27531 16.3193 4.41632C15.5308 3.55734 14.5727 2.87133 13.5058 2.40164C12.4388 1.93194 11.286 1.68878 10.1203 1.6875V1.6875Z" fill="#CCD6F6"/>
<path d="M9.472 7.01388L8.71983 5.97586C8.6065 5.82029 8.46092 5.69106 8.29305 5.59701C8.12518 5.50295 7.93899 5.44628 7.74721 5.43089C7.55446 5.41669 7.36092 5.44409 7.17969 5.51125C6.99845 5.57841 6.83376 5.68376 6.69677 5.82015L5.91867 6.59867C5.7448 6.77632 5.60909 6.98767 5.51988 7.21974C5.43068 7.4518 5.38986 7.69967 5.39994 7.9481C5.39994 9.09642 6.28178 10.5432 7.9936 12.23C9.99721 14.1763 11.3848 14.825 12.3315 14.825C12.5722 14.8313 12.8115 14.7879 13.0347 14.6975C13.2578 14.6071 13.4599 14.4716 13.6283 14.2995L14.4064 13.521C14.548 13.3881 14.658 13.2251 14.7282 13.0441C14.7984 12.863 14.8271 12.6685 14.8122 12.4748C14.7973 12.2812 14.7391 12.0934 14.6419 11.9252C14.5448 11.7571 14.4111 11.6129 14.2508 11.5033L13.2328 10.7702C13.0633 10.6486 12.8681 10.5678 12.6623 10.534C12.4565 10.5003 12.2456 10.5145 12.0462 10.5756L11.0801 10.8805C11.0197 10.8763 10.9616 10.8561 10.9115 10.8221C10.3361 10.4088 9.82293 9.91507 9.3877 9.35593C9.38345 9.33233 9.38345 9.30816 9.3877 9.28456C9.472 8.99911 9.61465 8.53848 9.71191 8.22059C9.77484 8.01529 9.78586 7.79758 9.74399 7.58697C9.70212 7.37637 9.60866 7.17945 9.472 7.01388ZM10.3085 11.964C10.6552 12.1541 11.0625 12.2007 11.4432 12.0937L12.4417 11.7953L13.4857 12.6062L12.7141 13.3653C12.4028 13.6702 11.2551 13.5794 8.91436 11.2828C6.96911 9.39485 6.70325 8.36332 6.70325 7.92215C6.70813 7.77252 6.7709 7.63062 6.87833 7.52641L7.7083 6.75438L8.47343 7.82484C8.36969 8.14273 8.22055 8.61633 8.14274 8.8953C8.05037 9.19299 8.0618 9.51324 8.17516 9.80358C8.73436 10.6682 9.47025 11.4045 10.3344 11.964H10.3085Z" fill="#CCD6F6"/>
</g>
<defs>
<clipPath id="clip0_185_95">
<rect width="18" height="18" fill="white"/>
</clipPath>
</defs>
</svg>
