<svg width="12" height="12" viewBox="0 0 12 12" fill="none" xmlns="http://www.w3.org/2000/svg">
<g clip-path="url(#clip0_697_72)">
<path d="M8.23013 6.1245C8.70713 5.59313 9 4.89338 9 4.125C9 2.47088 7.65412 1.125 6 1.125C4.34588 1.125 3 2.47088 3 4.125C3 5.77912 4.34588 7.125 6 7.125C6.58312 7.125 7.12612 6.95512 7.58737 6.666C9.21862 7.28062 10.3417 8.7735 10.4846 10.5H1.51575C1.61287 9.33788 2.15812 8.25412 3.045 7.48087C3.20137 7.34475 3.2175 7.10813 3.08138 6.95175C2.94563 6.79575 2.70863 6.77925 2.55225 6.91537C1.40663 7.91362 0.75 9.35663 0.75 10.875C0.75 11.0824 0.918 11.25 1.125 11.25H10.875C11.0824 11.25 11.25 11.0824 11.25 10.875C11.25 8.81775 10.0575 6.98063 8.23013 6.1245ZM3.75 4.125C3.75 2.88412 4.75912 1.875 6 1.875C7.24088 1.875 8.25 2.88412 8.25 4.125C8.25 5.36588 7.24088 6.375 6 6.375C4.75912 6.375 3.75 5.36588 3.75 4.125Z" fill="#FAFBFC"/>
</g>
<defs>
<clipPath id="clip0_697_72">
<rect width="12" height="12" fill="white"/>
</clipPath>
</defs>
</svg>
