<svg width="40" height="40" viewBox="0 0 40 40" fill="none" xmlns="http://www.w3.org/2000/svg">
<g clip-path="url(#clip0_693_24)">
<path d="M20 40C31.0457 40 40 31.0457 40 20C40 8.9543 31.0457 0 20 0C8.9543 0 0 8.9543 0 20C0 31.0457 8.9543 40 20 40Z" fill="#2E9DD1"/>
<path d="M20 22.625L31.9375 12.4063C31.75 12.2813 31.5 12.1875 31.25 12.1875H8.75C8.5 12.1875 8.25 12.2813 8.0625 12.4063L20 22.625Z" fill="white"/>
<path d="M20.8125 23.5625C20.3437 23.9687 19.6563 23.9687 19.1875 23.5625L7.5 13.5937V26.5625C7.5 27.25 8.0625 27.8125 8.75 27.8125H31.25C31.9375 27.8125 32.5 27.25 32.5 26.5625V13.5625L20.8125 23.5625Z" fill="white"/>
</g>
<defs>
<clipPath id="clip0_693_24">
<rect width="40" height="40" fill="white"/>
</clipPath>
</defs>
</svg>
