<svg width="25" height="25" viewBox="0 0 25 25" fill="none" xmlns="http://www.w3.org/2000/svg">
<path d="M12.4346 0.000661531C9.42578 0.00159896 6.51925 1.11534 4.25361 3.13551C1.98796 5.15569 0.516798 7.94534 0.112711 10.9876C-0.291375 14.0298 0.399011 17.1184 2.05595 19.681C3.71288 22.2436 6.22403 24.1065 9.1241 24.9245C9.24853 24.9723 9.38135 24.9931 9.51408 24.9855C9.64682 24.978 9.77657 24.9424 9.89505 24.8808C10.0135 24.8193 10.1181 24.7333 10.2022 24.6282C10.2863 24.5231 10.348 24.4013 10.3834 24.2706C10.4187 24.1398 10.427 24.003 10.4077 23.8688C10.3883 23.7346 10.3418 23.6059 10.271 23.4911C10.2003 23.3763 10.1068 23.2778 9.99665 23.2018C9.88649 23.1259 9.76203 23.0742 9.63121 23.0501C7.2231 22.3773 5.12784 20.8529 3.7197 18.7492C2.31155 16.6455 1.68223 14.0995 1.94415 11.566C2.20608 9.03253 3.34218 6.67657 5.14953 4.91896C6.95688 3.16135 9.31775 2.11656 11.8104 1.97122C14.3031 1.82589 16.7653 2.58947 18.7571 4.12557C20.7489 5.66168 22.1406 7.87025 22.6837 10.3568C23.2268 12.8433 22.8858 15.4459 21.7217 17.6996C20.5576 19.9532 18.6461 21.7113 16.3288 22.6596C16.3892 21.3767 16.2927 20.0912 16.0418 18.8327C17.4018 18.5249 18.6144 17.7437 19.4716 16.6233C20.3288 15.5028 20.7772 14.1129 20.7397 12.692C20.8087 11.3555 20.4567 10.0315 19.735 8.91389C19.8688 7.80499 19.7375 6.67953 19.3523 5.63367C19.2805 5.41559 19.1356 5.23038 18.943 5.11071C18.7504 4.99104 18.5227 4.9446 18.2998 4.97957C17.1458 5.14038 16.043 5.56777 15.0754 6.22918C14.2134 5.99534 13.3265 5.87074 12.4346 5.85821C11.4651 5.88427 10.5019 6.02514 9.56423 6.278C8.63417 5.55204 7.50104 5.1484 6.33025 5.12601C6.12396 5.11358 5.91927 5.16963 5.7468 5.28578C5.57433 5.40192 5.44335 5.57192 5.37345 5.77034C5.02255 6.7669 4.90141 7.83255 5.01943 8.8846C4.3329 10.0289 3.9841 11.3507 4.01479 12.692C4.05025 14.1057 4.53649 15.4691 5.39979 16.5755C6.2631 17.6819 7.4564 18.4709 8.79879 18.8229C8.73734 19.0772 8.68943 19.3346 8.65527 19.5941C7.69847 19.6527 7.14353 19.0572 6.4355 18.1493C6.0187 17.4347 5.35754 16.9026 4.5793 16.6556C4.33763 16.6116 4.08864 16.6641 3.88384 16.8022C3.67903 16.9403 3.53409 17.1535 3.47898 17.3976C3.42599 17.6418 3.46693 17.8975 3.59333 18.1119C3.71974 18.3262 3.92198 18.4829 4.15831 18.5495C4.3114 18.5495 4.68455 19.0572 4.89505 19.3403C5.2763 19.9735 5.8014 20.5037 6.42594 20.886C7.05047 21.2684 7.75607 21.4916 8.48305 21.5369C8.90357 21.5363 9.32204 21.4772 9.72689 21.3612C9.82601 21.3312 9.91971 21.285 10.0044 21.2245C10.0742 21.1682 10.1327 21.0985 10.1766 21.0195C10.207 20.9951 10.2329 20.9653 10.2531 20.9316C10.278 20.8785 10.2972 20.8229 10.3105 20.7657C10.334 20.702 10.3532 20.6368 10.3679 20.5704V20.5704C10.3648 19.9217 10.5158 19.2819 10.8081 18.7058C10.927 18.5639 11.0035 18.3903 11.0287 18.2055C11.0538 18.0206 11.0265 17.8323 10.95 17.6628C10.8735 17.4932 10.751 17.3497 10.5969 17.249C10.4429 17.1484 10.2638 17.0949 10.0809 17.0949C8.97198 17.0311 7.92773 16.5418 7.15759 15.7252C6.38744 14.9086 5.94836 13.8251 5.92839 12.692C5.88101 11.6487 6.17373 10.6188 6.76081 9.76323C6.85602 9.65428 6.92608 9.52493 6.96582 9.3847C7.00556 9.24447 7.01397 9.09693 6.99044 8.95294C6.88034 8.35616 6.88034 7.74365 6.99044 7.14686C7.61655 7.28215 8.19317 7.59323 8.65527 8.04502C8.78 8.16715 8.93482 8.25252 9.10329 8.29205C9.27176 8.33159 9.44759 8.32382 9.61207 8.26956C10.5315 8.00195 11.4792 7.8479 12.4346 7.81072C13.2946 7.83265 14.1476 7.97388 14.9702 8.23051C15.1305 8.29112 15.3038 8.30678 15.4721 8.27588C15.6403 8.24497 15.7974 8.16863 15.927 8.05478C16.4844 7.58614 17.1386 7.25238 17.8406 7.07853C17.9841 7.69145 17.9841 8.33025 17.8406 8.94318C17.8031 9.11901 17.8117 9.30179 17.8655 9.47316C17.9192 9.64453 18.0162 9.79844 18.1467 9.91944C18.7084 10.7228 18.9511 11.7134 18.8261 12.692C18.8486 13.2658 18.7552 13.8382 18.5518 14.3736C18.3483 14.9091 18.0392 15.3961 17.6434 15.8044C17.2477 16.2128 16.7739 16.5337 16.2515 16.7473C15.7291 16.9609 15.1692 17.0626 14.6066 17.0461C14.4111 17.0455 14.2201 17.1059 14.0593 17.2194C13.8985 17.3328 13.7756 17.4938 13.7072 17.6807C13.6377 17.8676 13.6262 18.0717 13.6741 18.2655C13.722 18.4593 13.8271 18.6334 13.9751 18.7643C14.5396 19.2622 14.4535 22.6694 14.4248 23.9971C14.421 24.1486 14.452 24.299 14.5151 24.4363C14.5782 24.5735 14.6717 24.6939 14.7884 24.7878C14.958 24.9221 15.1669 24.9944 15.3816 24.9928C15.461 25.0024 15.5413 25.0024 15.6208 24.9928C18.5701 24.2292 21.1429 22.389 22.8521 19.8204C24.5614 17.2518 25.2886 14.133 24.8961 11.0543C24.5036 7.97549 23.0186 5.15031 20.7222 3.11335C18.4258 1.0764 15.4773 -0.0310225 12.4346 0.000661531V0.000661531Z" fill="#40F591"/>
</svg>
