<svg width="40" height="40" viewBox="0 0 40 40" fill="none" xmlns="http://www.w3.org/2000/svg">
<g clip-path="url(#clip0_693_2)">
<rect x="3" y="3" width="35" height="35" rx="17.5" fill="white"/>
<path fill-rule="evenodd" clip-rule="evenodd" d="M26.5687 15.4402V15.4362C26.9034 15.4362 27.2387 15.4429 27.5741 15.4349C28.0047 15.4242 28.3554 15.0549 28.3554 14.6235C28.3554 13.9815 28.3554 13.3389 28.3554 12.6969C28.3554 12.2362 27.9907 11.8702 27.5314 11.8695C26.8907 11.8695 26.2501 11.8689 25.6094 11.8695C25.1507 11.8702 24.7854 12.2375 24.7854 12.6982C24.7847 13.3349 24.7827 13.9715 24.7874 14.6082C24.7881 14.7035 24.8061 14.8022 24.8361 14.8922C24.9514 15.2309 25.2621 15.4389 25.6421 15.4409C25.9507 15.4409 26.2601 15.4402 26.5687 15.4402ZM20.3881 16.2662C18.1321 16.2649 16.2981 18.0802 16.2667 20.3255C16.2341 22.6322 18.0801 24.4595 20.2934 24.5069C22.5961 24.5562 24.4587 22.7162 24.5074 20.4782C24.5574 18.1715 22.6961 16.2649 20.3881 16.2662ZM12.4187 18.4655V18.5202C12.4187 21.5302 12.4181 24.5402 12.4187 27.5502C12.4187 27.9829 12.7934 28.3555 13.2267 28.3555C18.0001 28.3562 22.7727 28.3562 27.5461 28.3555C27.9834 28.3555 28.3561 27.9842 28.3561 27.5475C28.3567 24.5415 28.3561 21.5342 28.3561 18.5289V18.4662H26.4147C26.6887 19.3422 26.7727 20.2335 26.6654 21.1422C26.5581 22.0509 26.2647 22.8962 25.7881 23.6775C25.3114 24.4588 24.6921 25.1075 23.9354 25.6229C21.9727 26.9602 19.3881 27.0775 17.3047 25.9082C16.2521 25.3182 15.4254 24.4949 14.8481 23.4329C13.9887 21.8509 13.8514 20.1895 14.3554 18.4655C13.7101 18.4655 13.0687 18.4655 12.4187 18.4655ZM28.5247 30.5582C28.6307 30.5409 28.7367 30.5255 28.8414 30.5029C29.6721 30.3262 30.3507 29.6335 30.5134 28.7982C30.5301 28.7069 30.5434 28.6162 30.5581 28.5255V12.2509C30.5441 12.1622 30.5314 12.0722 30.5147 11.9835C30.3361 11.0722 29.5841 10.3649 28.6614 10.2382C28.6227 10.2335 28.5861 10.2249 28.5481 10.2182H12.2287C12.1307 10.2362 12.0314 10.2495 11.9347 10.2715C11.0334 10.4769 10.3667 11.2022 10.2381 12.1155C10.2327 12.1535 10.2247 12.1915 10.2187 12.2295V28.5482C10.2374 28.6509 10.2521 28.7555 10.2754 28.8582C10.4747 29.7395 11.2267 30.4229 12.1221 30.5382C12.1647 30.5435 12.2087 30.5522 12.2521 30.5582H28.5247V30.5582ZM20.3881 40.3882C9.34273 40.3882 0.388062 31.4335 0.388062 20.3882C0.388062 9.34218 9.34273 0.388184 20.3881 0.388184C31.4334 0.388184 40.3881 9.34218 40.3881 20.3882C40.3881 31.4335 31.4334 40.3882 20.3881 40.3882Z" fill="#2E9DD1"/>
</g>
<defs>
<clipPath id="clip0_693_2">
<rect width="40" height="40" fill="white"/>
</clipPath>
</defs>
</svg>
