<svg width="25" height="25" viewBox="0 0 25 25" fill="none" xmlns="http://www.w3.org/2000/svg">
<path d="M7.5 11.25V18.75" stroke="#2E9DD1" stroke-width="2" stroke-linecap="round" stroke-linejoin="round"/>
<path d="M7.50549 6.25C8.19585 6.25 8.75549 6.80964 8.75549 7.5C8.75549 8.14104 8.27294 8.66938 7.65127 8.74159L7.50549 8.75C6.80964 8.75 6.25 8.19036 6.25 7.5C6.25 6.85896 6.73255 6.33062 7.35422 6.25841L7.50549 6.25Z" fill="#2E9DD1"/>
<path d="M11.25 11.25V18.75" stroke="#2E9DD1" stroke-width="2" stroke-linecap="round" stroke-linejoin="round"/>
<path d="M11.25 18.75V15C11.25 12.9289 12.9289 11.25 15 11.25C17.0711 11.25 18.75 12.9289 18.75 15V18.75" stroke="#2E9DD1" stroke-width="2" stroke-linecap="round" stroke-linejoin="round"/>
<path fill-rule="evenodd" clip-rule="evenodd" d="M5 1.25H20C22.0711 1.25 23.75 2.92893 23.75 5V20C23.75 22.0711 22.0711 23.75 20 23.75H5C2.92893 23.75 1.25 22.0711 1.25 20V5C1.25 2.92893 2.92893 1.25 5 1.25Z" stroke="#2E9DD1" stroke-width="2" stroke-linecap="round" stroke-linejoin="round"/>
</svg>
