<svg width="32" height="32" viewBox="0 0 32 32" fill="none" xmlns="http://www.w3.org/2000/svg">
<path d="M15.4385 2.99993C12.4297 3.00087 9.52316 4.11461 7.25751 6.13478C4.99187 8.15496 3.5207 10.9446 3.11662 13.9868C2.71253 17.0291 3.40292 20.1176 5.05985 22.6802C6.71679 25.2428 9.22794 27.1057 12.128 27.9238C12.2524 27.9715 12.3853 27.9923 12.518 27.9848C12.6507 27.9773 12.7805 27.9416 12.899 27.8801C13.0174 27.8186 13.122 27.7325 13.2061 27.6275C13.2902 27.5224 13.3519 27.4006 13.3873 27.2698C13.4226 27.1391 13.4309 27.0022 13.4116 26.868C13.3922 26.7338 13.3457 26.6052 13.2749 26.4904C13.2042 26.3755 13.1107 26.277 13.0006 26.2011C12.8904 26.1252 12.7659 26.0735 12.6351 26.0494C10.227 25.3765 8.13175 23.8521 6.7236 21.7484C5.31546 19.6447 4.68614 17.0987 4.94806 14.5653C5.20998 12.0318 6.34609 9.67584 8.15343 7.91823C9.96078 6.16061 12.3217 5.11583 14.8143 4.97049C17.307 4.82516 19.7692 5.58874 21.761 7.12484C23.7528 8.66094 25.1445 10.8695 25.6876 13.3561C26.2307 15.8426 25.8897 18.4451 24.7256 20.6988C23.5615 22.9525 21.65 24.7105 19.3327 25.6589C19.3931 24.376 19.2966 23.0905 19.0457 21.8319C20.4057 21.5241 21.6183 20.743 22.4755 19.6225C23.3327 18.5021 23.7811 17.1122 23.7436 15.6913C23.8126 14.3548 23.4606 13.0308 22.7389 11.9132C22.8727 10.8043 22.7414 9.6788 22.3562 8.63293C22.2844 8.41486 22.1395 8.22965 21.9469 8.10998C21.7544 7.99031 21.5266 7.94387 21.3037 7.97884C20.1497 8.13965 19.0469 8.56704 18.0793 9.22845C17.2173 8.99461 16.3304 8.87001 15.4385 8.85747C14.469 8.88354 13.5058 9.02441 12.5681 9.27726C11.6381 8.55131 10.5049 8.14767 9.33415 8.12528C9.12787 8.11285 8.92318 8.1689 8.75071 8.28505C8.57824 8.40119 8.44726 8.57119 8.37735 8.76961C8.02645 9.76617 7.90531 10.8318 8.02334 11.8839C7.33681 13.0281 6.98801 14.35 7.0187 15.6913C7.05415 17.105 7.54039 18.4684 8.4037 19.5748C9.26701 20.6811 10.4603 21.4701 11.8027 21.8222C11.7412 22.0764 11.6933 22.3339 11.6592 22.5934C10.7024 22.652 10.1474 22.0565 9.4394 21.1486C9.02261 20.4339 8.36145 19.9019 7.58321 19.6549C7.34154 19.6109 7.09255 19.6634 6.88774 19.8015C6.68294 19.9396 6.538 20.1527 6.48289 20.3968C6.4299 20.6411 6.47083 20.8968 6.59724 21.1112C6.72365 21.3255 6.92589 21.4822 7.16222 21.5488C7.31531 21.5488 7.68846 22.0565 7.89895 22.3396C8.2802 22.9728 8.80531 23.503 9.42984 23.8853C10.0544 24.2677 10.76 24.4909 11.487 24.5362C11.9075 24.5356 12.3259 24.4765 12.7308 24.3604C12.8299 24.3305 12.9236 24.2843 13.0083 24.2238C13.0781 24.1674 13.1366 24.0978 13.1805 24.0187C13.2109 23.9943 13.2368 23.9646 13.257 23.9309C13.2819 23.8778 13.3011 23.8222 13.3144 23.7649C13.3379 23.7013 13.3571 23.636 13.3719 23.5697V23.5697C13.3687 22.921 13.5197 22.2811 13.812 21.705C13.9309 21.5632 14.0074 21.3896 14.0326 21.2047C14.0577 21.0199 14.0304 20.8315 13.9539 20.662C13.8774 20.4925 13.7549 20.3489 13.6008 20.2483C13.4468 20.1477 13.2677 20.0942 13.0848 20.0942C11.9759 20.0303 10.9316 19.541 10.1615 18.7244C9.39135 17.9079 8.95226 16.8244 8.9323 15.6913C8.88491 14.648 9.17764 13.6181 9.76471 12.7625C9.85993 12.6535 9.92998 12.5242 9.96972 12.384C10.0095 12.2437 10.0179 12.0962 9.99435 11.9522C9.88424 11.3554 9.88424 10.7429 9.99435 10.1461C10.6205 10.2814 11.1971 10.5925 11.6592 11.0443C11.7839 11.1664 11.9387 11.2518 12.1072 11.2913C12.2757 11.3309 12.4515 11.3231 12.616 11.2688C13.5355 11.0012 14.4831 10.8472 15.4385 10.81C16.2985 10.8319 17.1515 10.9731 17.9741 11.2298C18.1344 11.2904 18.3077 11.3061 18.476 11.2751C18.6442 11.2442 18.8013 11.1679 18.9309 11.0541C19.4883 10.5854 20.1425 10.2516 20.8445 10.0778C20.988 10.6907 20.988 11.3295 20.8445 11.9424C20.807 12.1183 20.8156 12.3011 20.8694 12.4724C20.9231 12.6438 21.0201 12.7977 21.1506 12.9187C21.7123 13.7221 21.955 14.7127 21.83 15.6913C21.8525 16.2651 21.7591 16.8375 21.5557 17.3729C21.3522 17.9083 21.0431 18.3953 20.6473 18.8037C20.2516 19.212 19.7778 19.533 19.2554 19.7466C18.733 19.9602 18.1731 20.0619 17.6105 20.0454C17.415 20.0447 17.224 20.1052 17.0632 20.2187C16.9024 20.3321 16.7795 20.4931 16.7111 20.6799C16.6417 20.8668 16.6301 21.071 16.678 21.2648C16.7259 21.4585 16.831 21.6327 16.979 21.7636C17.5435 22.2615 17.4574 25.6686 17.4287 26.9963C17.4249 27.1479 17.4559 27.2983 17.519 27.4355C17.5821 27.5728 17.6756 27.6931 17.7923 27.7871C17.9619 27.9214 18.1708 27.9936 18.3855 27.9921C18.4649 28.0017 18.5452 28.0017 18.6247 27.9921C21.5741 27.2285 24.1468 25.3883 25.856 22.8197C27.5653 20.2511 28.2925 17.1323 27.9 14.0535C27.5075 10.9748 26.0225 8.14958 23.7261 6.11262C21.4297 4.07566 18.4812 2.96825 15.4385 2.99993V2.99993Z" fill="#E9F4FE"/>
</svg>
