<svg width="40" height="40" viewBox="0 0 40 40" fill="none" xmlns="http://www.w3.org/2000/svg">
<g clip-path="url(#clip0_693_34)">
<path d="M20 40C31.0457 40 40 31.0457 40 20C40 8.9543 31.0457 0 20 0C8.9543 0 0 8.9543 0 20C0 31.0457 8.9543 40 20 40Z" fill="#2E9DD1"/>
<path d="M13.75 13.75H8.75V31.25H13.75V13.75Z" fill="white"/>
<path d="M25.6238 13.75C22.135 13.75 21.535 15.0225 21.25 16.25V13.75H16.25V31.25H21.25V21.25C21.25 19.6287 22.1287 18.75 23.75 18.75C25.3325 18.75 26.25 19.61 26.25 21.25V31.25H31.25V22.5C31.25 17.5 30.5988 13.75 25.6238 13.75Z" fill="white"/>
<path d="M11.25 12.5C12.6307 12.5 13.75 11.3807 13.75 10C13.75 8.61929 12.6307 7.5 11.25 7.5C9.86929 7.5 8.75 8.61929 8.75 10C8.75 11.3807 9.86929 12.5 11.25 12.5Z" fill="white"/>
</g>
<defs>
<clipPath id="clip0_693_34">
<rect width="40" height="40" fill="white"/>
</clipPath>
</defs>
</svg>
