<svg width="40" height="40" viewBox="0 0 40 40" fill="none" xmlns="http://www.w3.org/2000/svg">
<g clip-path="url(#clip0_693_4)">
<path d="M20.0002 39.9996C31.0458 39.9996 40 31.0454 40 19.9998C40 8.95423 31.0458 0 20.0002 0C8.95459 0 0.000366211 8.95423 0.000366211 19.9998C0.000366211 31.0454 8.95459 39.9996 20.0002 39.9996Z" fill="#2E9DD1"/>
<path d="M32.2507 14.3731C31.3937 14.7532 30.4717 15.0102 29.5049 15.125C30.4921 14.5336 31.2496 13.5977 31.6072 12.4807C30.6835 13.0287 29.6599 13.4262 28.5715 13.6405C27.6995 12.7118 26.457 12.1313 25.0812 12.1313C22.4416 12.1313 20.3007 14.2722 20.3007 16.9119C20.3007 17.2866 20.3431 17.6513 20.4251 18.0014C16.4521 17.8021 12.9294 15.899 10.5714 13.0059C10.16 13.7118 9.92394 14.5336 9.92394 15.4095C9.92394 17.0677 10.7685 18.5315 12.0506 19.3886C11.2673 19.364 10.5297 19.149 9.88544 18.79C9.88508 18.8103 9.88508 18.8306 9.88508 18.8506C9.88508 21.1669 11.5336 23.0988 13.7201 23.5377C13.3194 23.6475 12.8962 23.7056 12.4609 23.7056C12.1522 23.7056 11.853 23.676 11.5614 23.6204C12.1696 25.5192 13.9347 26.9014 16.0271 26.9403C14.3907 28.2227 12.3297 28.9867 10.0894 28.9867C9.70433 28.9867 9.32286 28.9642 8.94958 28.9197C11.0641 30.2766 13.5775 31.0677 16.2771 31.0677C25.0702 31.0677 29.8788 23.7834 29.8788 17.4655C29.8788 17.2584 29.8742 17.052 29.8649 16.8473C30.7997 16.1735 31.6101 15.3318 32.2507 14.3731Z" fill="white"/>
</g>
<defs>
<clipPath id="clip0_693_4">
<rect width="40" height="40" fill="white"/>
</clipPath>
</defs>
</svg>
